<?xml version="1.0" encoding="iso-8859-1"?>
<!-- Generator: Adobe Illustrator 19.0.0, SVG Export Plug-In . SVG Version: 6.00 Build 0)  -->
<svg version="1.1" id="Capa_1" xmlns="http://www.w3.org/2000/svg" xmlns:xlink="http://www.w3.org/1999/xlink" x="0px" y="0px"
	 viewBox="0 0 389.6 389.6" style="enable-background:new 0 0 389.6 389.6;" xml:space="preserve">
<g>
	<g>
		<path d="M194.4,98.4c-21.6,0-38.4,17.6-38.4,38.4c0,21.6,16.8,38.4,38.4,38.4c21.6,0,38.4-17.6,38.4-38.4
			C232.8,115.2,215.2,98.4,194.4,98.4z M194.4,163.2c-14.4,0-26.4-12-26.4-26.4c0-14.4,12-26.4,26.4-26.4c14.4,0,26.4,12,26.4,26.4
			C220.8,151.2,208.8,163.2,194.4,163.2z"/>
	</g>
</g>
<g>
	<g>
		<path d="M322.4,240c-3.2,0-6.4,2.4-6.4,6.4v28.8c0,4,3.2,6.4,6.4,6.4s6.4-2.4,6.4-6.4v-28.8C328.8,243.2,326.4,240,322.4,240z"/>
	</g>
</g>
<g>
	<g>
		<path d="M322.4,303.2c-3.2,0-6.4,2.4-6.4,6.4v28.8c0,3.2,3.2,6.4,6.4,6.4s6.4-2.4,6.4-6.4v-28.8
			C328.8,306.4,326.4,303.2,322.4,303.2z"/>
	</g>
</g>
<g>
	<g>
		<path d="M66.4,240c-3.2,0-5.6,2.4-5.6,6.4v28.8c0,4,2.4,6.4,5.6,6.4s6.4-2.4,6.4-6.4v-28.8C72.8,243.2,70.4,240,66.4,240z"/>
	</g>
</g>
<g>
	<g>
		<path d="M66.4,303.2c-3.2,0-5.6,2.4-5.6,6.4v28.8c0,3.2,2.4,6.4,5.6,6.4s6.4-2.4,6.4-6.4v-28.8C72.8,306.4,70.4,303.2,66.4,303.2z
			"/>
	</g>
</g>
<g>
	<g>
		<path d="M383.2,222.4c3.2,0,6.4-2.4,6.4-6.4c0-3.2-2.4-6.4-6.4-6.4h-22.4h-70.4V80H312c3.2,0,6.4-2.4,6.4-6.4s-2.4-6.4-6.4-6.4
			h-28h-84V20.8c0-3.2-2.4-6.4-6.4-6.4c-3.2,0-6.4,2.4-6.4,6.4v46.4H104H80.8c-3.2,0-6.4,2.4-6.4,6.4s2.4,6.4,6.4,6.4h17.6v130.4
			H29.6H6.4c-3.2,0-6.4,2.4-6.4,6.4c0,3.2,3.2,5.6,6.4,5.6h16.8v140.8H8.8c-3.2,0-6.4,2.4-6.4,5.6s2.4,6.4,6.4,6.4h20H104h47.2h87.2
			h47.2h75.2h20c3.2,0,6.4-2.4,6.4-6.4c0-3.2-2.4-6.4-6.4-6.4h-14.4v-140H383.2z M98.4,363.2H35.2V222.4h63.2V363.2z M188,363.2
			h-31.2V253.6H188V363.2z M231.2,363.2H200V253.6h31.2V363.2z M278.4,216.8v146.4h-35.2V248c0-3.2-2.4-6.4-6.4-6.4h-85.6
			c-3.2,0-6.4,2.4-6.4,6.4v115.2h-35.2V216.8V80h168.8V216.8z M353.6,363.2h-63.2V222.4h63.2V363.2z"/>
	</g>
</g>
<g>
</g>
<g>
</g>
<g>
</g>
<g>
</g>
<g>
</g>
<g>
</g>
<g>
</g>
<g>
</g>
<g>
</g>
<g>
</g>
<g>
</g>
<g>
</g>
<g>
</g>
<g>
</g>
<g>
</g>
</svg>
